<svg width="131" height="53" viewBox="0 0 131 53" fill="none" xmlns="http://www.w3.org/2000/svg">
<path d="M22.2675 43.7487L17.3014 48.7273L12.335 43.7487C9.81667 41.2241 9.50952 37.2749 11.423 34.3953L17.8704 41.0155L19.7655 39.1699L4.09054 23.0751L8.57748 18.577C9.03732 19.4983 9.63958 20.3536 10.3776 21.1113L14.853 25.7066L16.748 23.8609L12.2727 19.2656C9.46117 16.379 9.48924 11.7094 12.335 8.85652L17.3014 3.87785L22.2675 8.85652C24.7858 11.3809 25.0929 15.3301 23.1793 18.2097L16.7322 11.5897L14.8371 13.4355L30.512 29.5303L26.0251 34.0282C25.5654 33.1071 24.9631 32.2519 24.2249 31.4939L19.7496 26.8986L17.8547 28.7442L22.33 33.3396C25.1414 36.2262 25.1133 40.8958 22.2675 43.7487ZM34.2262 29.5525L25.0565 20.1368C26.3743 18.3866 27.0848 16.2644 27.0735 14.0382C27.0602 11.3747 26.0185 8.87108 24.1404 6.98833L17.3014 0.132056L10.4621 6.98833C8.58394 8.87122 7.54065 11.373 7.52478 14.0324C7.52125 14.6132 7.56975 15.1864 7.66248 15.7485L0.376343 23.0527L9.54596 32.4681C8.228 34.2184 7.51758 36.3408 7.52889 38.5669C7.54227 41.2305 8.58409 43.7341 10.4621 45.617L17.3014 52.4731L24.1404 45.617C26.0186 43.734 27.0619 41.2324 27.0778 38.5728C27.0813 37.992 27.0328 37.4188 26.9401 36.8567L34.2262 29.5525Z" fill="#103260"/>
<path d="M64.9993 18.2946C64.9993 16.345 62.6423 15.8794 61.1292 15.8794C58.2484 15.8794 53.7672 17.4507 53.7672 20.9717C53.7672 25.1037 60.1689 27.1406 60.1689 31.1271C60.1689 34.4444 56.357 36.1903 53.5053 36.1903C51.9049 36.1903 49.6061 35.5792 49.6061 33.6005C49.6061 30.3706 53.9418 30.0505 56.2988 30.0505L56.4443 29.8759L56.4152 29.5849L56.2406 29.4685C53.709 29.4685 47.4528 29.5558 47.4528 33.3386C47.4528 36.1321 50.9737 36.8014 53.127 36.8014C56.6189 36.8014 62.0603 34.6481 62.0603 30.4869C62.0603 26.093 55.6295 23.9979 55.6295 20.3315C55.6295 17.9163 58.3939 16.5778 60.489 16.5778C61.5947 16.5778 63.1079 16.956 63.1079 18.3237C63.1079 20.3024 60.4017 20.6516 58.9468 20.6516L58.8304 20.7971V21.0299L58.9758 21.1463C59.325 21.1754 59.6451 21.2045 59.9943 21.2045C61.682 21.2045 64.9993 20.5352 64.9993 18.2946Z" fill="#103260"/>
<path d="M79.1799 29.1193C79.1799 28.9738 79.1508 28.8283 79.1217 28.6828C78.3651 29.7886 74.4659 35.4628 72.9528 35.4628C72.6618 35.4628 72.3708 35.2591 72.3708 34.9391C72.3708 32.7276 74.3204 30.3706 74.3204 28.1882C74.3204 27.257 73.593 26.5295 72.6618 26.5295C70.5085 26.5295 67.4822 31.3017 66.4347 32.8439L67.6568 28.3918C69.9265 25.9766 72.9237 21.9028 72.9237 18.411C72.9237 17.6544 72.7782 16.8688 72.2835 16.2577L72.1671 16.2286C68.9663 18.0618 66.3474 26.4131 65.4453 29.7013C65.2125 30.516 63.6994 35.7829 63.6994 36.2485C63.6994 36.394 63.7576 36.5395 63.9322 36.5395C64.2814 36.5395 64.8051 36.3649 65.1543 36.2776C65.649 36.1612 69.7228 27.6062 71.9925 27.6062C72.3126 27.6062 72.4872 27.8972 72.4872 28.1882C72.4872 30.0796 70.5376 32.8148 70.5376 34.8518C70.5376 35.8411 71.1196 36.6559 72.1671 36.6559C73.9712 36.6559 79.1799 30.5742 79.1799 29.1193ZM71.3524 19.895C71.3524 22.6885 69.8683 25.0746 68.006 27.0533C68.5298 24.6381 69.4318 20.0405 71.0323 18.1491C71.2942 18.702 71.3524 19.313 71.3524 19.895Z" fill="#103260"/>
<path d="M82.6442 22.7467C82.6442 22.4848 81.3639 21.7282 81.1311 21.7282C80.9274 21.7282 80.3454 22.9213 80.3454 23.1541C80.3454 23.6778 81.6258 24.0561 82.0332 24.0561C82.6442 24.0561 82.6442 23.1832 82.6442 22.7467ZM86.4562 28.8283C86.4562 28.7119 86.4271 28.5664 86.398 28.45C85.4959 29.7595 81.4803 35.7538 79.7053 35.7538C79.2106 35.7538 78.9778 35.3755 78.9778 34.91C78.9778 32.9894 81.4512 28.1591 81.4512 26.7041C81.4512 26.6168 81.3348 26.5004 81.2475 26.5004C80.6946 26.5004 79.7053 26.6168 79.5016 27.2279L77.6393 32.9603C77.4647 33.5423 77.2319 34.2116 77.2319 34.8227C77.2319 35.8411 77.8721 36.5977 78.9196 36.5977C81.4803 36.5977 86.4562 30.3415 86.4562 28.8283Z" fill="#103260"/>
<path d="M99.5526 28.9447C99.5526 28.8283 99.4944 28.7119 99.4653 28.5955C98.7379 29.614 94.6641 35.4046 93.3255 35.4046C93.0636 35.4046 92.7726 35.2009 92.7726 34.91C92.7726 32.7276 94.7223 30.3415 94.7223 28.0718C94.7223 27.1697 94.0239 26.4422 93.1218 26.4422C90.9685 26.4422 87.6513 31.6218 86.6328 33.1931C86.8365 32.5239 88.6406 26.9951 88.6406 26.7041C88.6406 26.5586 88.5533 26.4713 88.4078 26.4713C87.6222 26.4713 86.7783 26.7332 86.5455 27.5189C86.2545 28.5082 83.8975 35.812 83.8975 36.3067C83.8975 36.4231 84.0139 36.5395 84.1303 36.5686C84.2758 36.5977 85.1488 36.394 85.3525 36.3649C85.9635 36.2485 85.9926 35.7538 86.1963 35.2591C86.8656 33.7169 90.7939 27.6353 92.3362 27.6353C92.569 27.6353 92.8017 27.8099 92.8017 28.0718C92.8017 29.7013 90.823 32.9894 90.823 34.8227C90.823 35.812 91.5214 36.6268 92.5399 36.6268C94.3731 36.6268 99.5526 30.2542 99.5526 28.9447Z" fill="#103260"/>
<path d="M111.487 29.0029C111.487 28.8574 111.458 28.7119 111.399 28.5955C110.643 29.6722 106.656 35.6374 105.231 35.6374C104.91 35.6374 104.678 35.3464 104.678 35.0554C104.678 33.0767 106.802 28.8865 106.802 27.2279V27.1697L106.656 26.966C105.842 26.6168 104.969 26.4131 104.096 26.4131C100.72 26.4131 96.9083 30.196 96.9083 33.5714C96.9083 35.0845 97.5485 36.6559 99.2944 36.6559C101.215 36.6559 103.048 33.3968 103.863 31.971C103.601 32.7276 103.019 34.4444 103.019 35.23C103.019 36.1612 103.543 36.685 104.474 36.685C106.656 36.685 111.487 29.9923 111.487 29.0029ZM105.289 27.5189C104.678 29.032 101.768 35.6956 99.6727 35.6956C99.0034 35.6956 98.7706 34.9682 98.7706 34.4153C98.7706 32.3784 101.71 27.0533 103.979 27.0533C104.445 27.0533 104.94 27.1988 105.289 27.5189Z" fill="#103260"/>
<path d="M130.376 28.9447C130.376 28.8283 130.347 28.6828 130.318 28.5664C129.533 29.6722 125.633 35.4919 124.178 35.4919C123.742 35.4919 123.538 35.2591 123.538 34.8227C123.538 32.5821 125.4 30.3997 125.4 28.1591C125.4 27.2279 124.906 26.5004 123.916 26.5004C121.676 26.5004 118.795 31.3308 117.806 32.9603C118.126 31.8837 119.115 28.8865 119.115 27.8099C119.115 26.9078 118.417 26.4422 117.573 26.4422C115.216 26.4422 112.743 31.1562 111.782 32.873C111.957 32.2911 113.616 27.0242 113.616 26.7914C113.616 26.6459 113.499 26.5586 113.354 26.5586C112.83 26.5586 111.811 26.675 111.637 27.257C111.317 28.2754 108.931 35.8702 108.931 36.3649C108.931 36.4522 109.018 36.5686 109.105 36.5977C109.251 36.6268 110.269 36.394 110.473 36.3649C110.851 36.2776 114.75 27.5189 116.758 27.5189C117.078 27.5189 117.253 27.7226 117.253 28.0427C117.253 30.3124 115.158 34.1534 115.07 36.4522L115.274 36.5977C115.449 36.6268 116.234 36.4522 116.438 36.4231C116.991 36.3358 121.036 27.5771 123.073 27.5771C123.393 27.5771 123.655 27.8099 123.655 28.13C123.655 29.614 121.676 32.873 121.676 35.0554C121.676 35.9284 122.316 36.6559 123.218 36.6559C125.43 36.6559 127.699 33.164 128.892 31.5927C129.387 30.9525 130.376 29.7886 130.376 28.9447Z" fill="#103260"/>
</svg>
