<svg width="24" height="24" viewBox="0 0 350 650" fill="none" xmlns="http://www.w3.org/2000/svg">
<path d="M214.609 395.715L169.553 440.884L124.496 395.715C101.648 372.811 98.8613 336.982 116.221 310.856L174.716 370.918L191.909 354.174L49.6973 208.152L90.4053 167.343C94.5773 175.702 100.041 183.462 106.737 190.336L147.34 232.027L164.533 215.282L123.931 173.591C98.4227 147.402 98.6773 105.036 124.496 79.1535L169.553 33.9842L214.609 79.1535C237.456 102.056 240.243 137.885 222.881 164.011L164.389 103.951L147.196 120.696L289.408 266.717L248.7 307.525C244.529 299.168 239.065 291.41 232.368 284.532L191.765 242.842L174.573 259.586L215.176 301.277C240.683 327.467 240.428 369.832 214.609 395.715ZM323.105 266.919L239.912 181.495C251.868 165.616 258.315 146.362 258.212 126.164C258.091 102 248.64 79.2856 231.601 62.2042L169.553 0.000183105L107.504 62.2042C90.464 79.2869 80.9987 101.984 80.8547 126.112C80.8227 131.382 81.2627 136.582 82.104 141.682L16 207.949L99.192 293.371C87.2347 309.251 80.7893 328.507 80.892 348.703C81.0133 372.868 90.4653 395.583 107.504 412.666L169.553 474.868L231.601 412.666C248.641 395.582 258.107 372.886 258.251 348.756C258.283 343.487 257.843 338.287 257.001 333.187L323.105 266.919Z" fill="#103260"/>
<path d="M79.9953 529.745C79.9953 521.705 70.2753 519.785 64.0353 519.785C52.1553 519.785 33.6753 526.265 33.6753 540.785C33.6753 557.825 60.0753 566.225 60.0753 582.665C60.0753 596.345 44.3553 603.545 32.5953 603.545C25.9953 603.545 16.5153 601.025 16.5153 592.865C16.5153 579.545 34.3953 578.225 44.1153 578.225L44.7153 577.505L44.5953 576.305L43.8753 575.825C33.4353 575.825 7.63531 576.185 7.63531 591.785C7.63531 603.305 22.1553 606.065 31.0353 606.065C45.4353 606.065 67.8753 597.185 67.8753 580.025C67.8753 561.905 41.3553 553.265 41.3553 538.145C41.3553 528.185 52.7553 522.665 61.3953 522.665C65.9553 522.665 72.1953 524.225 72.1953 529.865C72.1953 538.025 61.0353 539.465 55.0353 539.465L54.5553 540.065V541.025L55.1553 541.505C56.5953 541.625 57.9153 541.745 59.3553 541.745C66.3153 541.745 79.9953 538.985 79.9953 529.745ZM138.475 574.385C138.475 573.785 138.355 573.185 138.235 572.585C135.115 577.145 119.035 600.545 112.795 600.545C111.595 600.545 110.395 599.705 110.395 598.385C110.395 589.265 118.435 579.545 118.435 570.545C118.435 566.705 115.435 563.705 111.595 563.705C102.715 563.705 90.2347 583.385 85.9147 589.745L90.9547 571.385C100.315 561.425 112.675 544.625 112.675 530.225C112.675 527.105 112.075 523.865 110.035 521.345L109.555 521.225C96.3547 528.785 85.5547 563.225 81.8347 576.785C80.8747 580.145 74.6347 601.865 74.6347 603.785C74.6347 604.385 74.8747 604.985 75.5947 604.985C77.0347 604.985 79.1947 604.265 80.6347 603.905C82.6747 603.425 99.4747 568.145 108.835 568.145C110.155 568.145 110.875 569.345 110.875 570.545C110.875 578.345 102.835 589.625 102.835 598.025C102.835 602.105 105.235 605.465 109.555 605.465C116.995 605.465 138.475 580.385 138.475 574.385ZM106.195 536.345C106.195 547.865 100.075 557.705 92.3947 565.865C94.5547 555.905 98.2747 536.945 104.875 529.145C105.955 531.425 106.195 533.945 106.195 536.345ZM152.761 548.105C152.761 547.025 147.481 543.905 146.521 543.905C145.681 543.905 143.281 548.825 143.281 549.785C143.281 551.945 148.561 553.505 150.241 553.505C152.761 553.505 152.761 549.905 152.761 548.105ZM168.481 573.185C168.481 572.705 168.361 572.105 168.241 571.625C164.521 577.025 147.961 601.745 140.641 601.745C138.601 601.745 137.641 600.185 137.641 598.265C137.641 590.345 147.841 570.425 147.841 564.425C147.841 564.065 147.361 563.585 147.001 563.585C144.721 563.585 140.641 564.065 139.801 566.585L132.121 590.225C131.401 592.625 130.441 595.385 130.441 597.905C130.441 602.105 133.081 605.225 137.401 605.225C147.961 605.225 168.481 579.425 168.481 573.185ZM222.49 573.665C222.49 573.185 222.25 572.705 222.13 572.225C219.13 576.425 202.33 600.305 196.81 600.305C195.73 600.305 194.53 599.465 194.53 598.265C194.53 589.265 202.57 579.425 202.57 570.065C202.57 566.345 199.69 563.345 195.97 563.345C187.09 563.345 173.41 584.705 169.21 591.185C170.05 588.425 177.49 565.625 177.49 564.425C177.49 563.825 177.13 563.465 176.53 563.465C173.29 563.465 169.81 564.545 168.85 567.785C167.65 571.865 157.93 601.985 157.93 604.025C157.93 604.505 158.41 604.985 158.89 605.105C159.49 605.225 163.09 604.385 163.93 604.265C166.45 603.785 166.57 601.745 167.41 599.705C170.17 593.345 186.37 568.265 192.73 568.265C193.69 568.265 194.65 568.985 194.65 570.065C194.65 576.785 186.49 590.345 186.49 597.905C186.49 601.985 189.37 605.345 193.57 605.345C201.13 605.345 222.49 579.065 222.49 573.665ZM271.705 573.905C271.705 573.305 271.585 572.705 271.345 572.225C268.225 576.665 251.785 601.265 245.905 601.265C244.585 601.265 243.625 600.065 243.625 598.865C243.625 590.705 252.385 573.425 252.385 566.585V566.345L251.785 565.505C248.425 564.065 244.825 563.225 241.225 563.225C227.305 563.225 211.585 578.825 211.585 592.745C211.585 598.985 214.225 605.465 221.425 605.465C229.345 605.465 236.905 592.025 240.265 586.145C239.185 589.265 236.785 596.345 236.785 599.585C236.785 603.425 238.945 605.585 242.785 605.585C251.785 605.585 271.705 577.985 271.705 573.905ZM246.145 567.785C243.625 574.025 231.625 601.505 222.985 601.505C220.225 601.505 219.265 598.505 219.265 596.225C219.265 587.825 231.385 565.865 240.745 565.865C242.665 565.865 244.705 566.465 246.145 567.785ZM349.603 573.665C349.603 573.185 349.483 572.585 349.363 572.105C346.123 576.665 330.043 600.665 324.043 600.665C322.243 600.665 321.403 599.705 321.403 597.905C321.403 588.665 329.083 579.665 329.083 570.425C329.083 566.585 327.043 563.585 322.963 563.585C313.723 563.585 301.843 583.505 297.763 590.225C299.083 585.785 303.163 573.425 303.163 568.985C303.163 565.265 300.283 563.345 296.803 563.345C287.083 563.345 276.883 582.785 272.923 589.865C273.643 587.465 280.483 565.745 280.483 564.785C280.483 564.185 280.003 563.825 279.403 563.825C277.243 563.825 273.043 564.305 272.323 566.705C271.003 570.905 261.163 602.225 261.163 604.265C261.163 604.625 261.523 605.105 261.883 605.225C262.483 605.345 266.683 604.385 267.523 604.265C269.083 603.905 285.163 567.785 293.443 567.785C294.763 567.785 295.483 568.625 295.483 569.945C295.483 579.305 286.843 595.145 286.483 604.625L287.323 605.225C288.043 605.345 291.283 604.625 292.123 604.505C294.403 604.145 311.083 568.025 319.483 568.025C320.803 568.025 321.883 568.985 321.883 570.305C321.883 576.425 313.723 589.865 313.723 598.865C313.723 602.465 316.363 605.465 320.083 605.465C329.203 605.465 338.563 591.065 343.483 584.585C345.523 581.945 349.603 577.145 349.603 573.665Z" fill="#103260"/>
</svg>
